<svg width="24" height="25" viewBox="0 0 24 25" fill="none" xmlns="http://www.w3.org/2000/svg">
<path d="M16.19 2.5H7.81C4.17 2.5 2 4.67 2 8.31V16.68C2 20.33 4.17 22.5 7.81 22.5H16.18C19.82 22.5 21.99 20.33 21.99 16.69V8.31C22 4.67 19.83 2.5 16.19 2.5ZM17.25 12.83C17.25 13.24 16.91 13.58 16.5 13.58C16.09 13.58 15.75 13.24 15.75 12.83V9.81L8.03 17.53C7.88 17.68 7.69 17.75 7.5 17.75C7.31 17.75 7.12 17.68 6.97 17.53C6.68 17.24 6.68 16.76 6.97 16.47L14.69 8.75H11.67C11.26 8.75 10.92 8.41 10.92 8C10.92 7.59 11.26 7.25 11.67 7.25H16.5C16.91 7.25 17.25 7.59 17.25 8V12.83Z" fill="#171717"/>
</svg>
