<svg width="34" height="34" viewBox="0 0 34 34" fill="none" xmlns="http://www.w3.org/2000/svg">
<path d="M33.1169 8.87256C32.0503 5.25589 29.0336 2.23923 25.4169 1.17256C22.6669 0.372561 20.7669 0.439228 19.4503 1.42256C17.8669 2.60589 17.6836 4.73923 17.6836 6.2559V10.4059C17.6836 14.5059 19.5503 16.5892 23.2169 16.5892H28.0003C29.5003 16.5892 31.6503 16.4059 32.8336 14.8226C33.8503 13.5226 33.9336 11.6226 33.1169 8.87256Z" fill="#FDFFEF"/>
<path opacity="0.4" d="M28.517 19.556C28.0837 19.056 27.4503 18.7726 26.8003 18.7726H20.8337C17.9003 18.7726 15.517 16.3893 15.517 13.456V7.48931C15.517 6.83931 15.2337 6.20598 14.7337 5.77265C14.2503 5.33931 13.5837 5.13931 12.9503 5.22265C9.03365 5.72265 5.43365 7.87265 3.08365 11.106C0.716986 14.356 -0.149681 18.3226 0.600319 22.2893C1.68365 28.0226 6.26699 32.606 12.017 33.6893C12.9337 33.8726 13.8503 33.956 14.767 33.956C17.7837 33.956 20.7003 33.0226 23.1837 31.206C26.417 28.856 28.567 25.256 29.067 21.3393C29.1503 20.6893 28.9503 20.0393 28.517 19.556Z" fill="#FDFFEF"/>
</svg>
