<svg width="41" height="41" viewBox="0 0 41 41" fill="none" xmlns="http://www.w3.org/2000/svg">
<path opacity="0.4" d="M36.4499 8.43335V31.7667C36.4499 34.5334 34.1999 36.7667 31.4499 36.7667H24.7832C22.0165 36.7667 19.7832 34.5334 19.7832 31.7667V8.43335C19.7832 5.66668 22.0165 3.43335 24.7832 3.43335H31.4499C34.1999 3.43335 36.4499 5.66668 36.4499 8.43335Z" fill="#FDFFEF"/>
<path d="M29.3665 10.1001C29.3665 10.7834 28.7999 11.3501 28.1165 11.3501H19.7832V8.8501H28.1165C28.7999 8.8501 29.3665 9.41676 29.3665 10.1001Z" fill="#FDFFEF"/>
<path d="M27.5332 30.1001C27.5332 30.7834 26.9832 31.3501 26.2832 31.3501H19.7832V28.8501H26.2832C26.9832 28.8501 27.5332 29.4168 27.5332 30.1001Z" fill="#FDFFEF"/>
<path d="M29.3665 23.4501C29.3499 24.1334 28.7999 24.6834 28.1165 24.6834C28.0999 24.6834 28.0999 24.6834 28.0999 24.6834L19.7832 24.6001V22.1001L28.1165 22.1834C28.8165 22.1834 29.3665 22.7501 29.3665 23.4501Z" fill="#FDFFEF"/>
<path d="M25.7165 16.7668C25.7165 17.4502 25.1499 18.0168 24.4665 18.0168H19.7832V15.5168H24.4665C25.1499 15.5168 25.7165 16.0835 25.7165 16.7668Z" fill="#FDFFEF"/>
<path opacity="0.4" d="M14.7338 8.35002V29.95C14.7338 30.7 14.4171 31.85 14.0338 32.4834L12.6671 34.75C11.1005 37.3834 8.53379 37.3834 6.95046 34.75L5.60046 32.4834C5.20046 31.85 4.88379 30.7 4.88379 29.95V8.35002C4.88379 5.65002 7.10046 3.43335 9.81712 3.43335C12.5171 3.43335 14.7338 5.65002 14.7338 8.35002Z" fill="#FDFFEF"/>
<path d="M14.7338 10.5168H4.88379V13.0168H14.7338V10.5168Z" fill="#FDFFEF"/>
</svg>
