<svg width="24" height="25" viewBox="0 0 24 25" fill="none" xmlns="http://www.w3.org/2000/svg">
<path d="M16.1401 3.45998L7.11012 6.45998C1.04012 8.48998 1.04012 11.8 7.11012 13.82L9.79012 14.71L10.6801 17.39C12.7001 23.46 16.0201 23.46 18.0401 17.39L21.0501 8.36998C22.3901 4.31998 20.1901 2.10998 16.1401 3.45998ZM16.4601 8.83998L12.6601 12.66C12.5101 12.81 12.3201 12.88 12.1301 12.88C11.9401 12.88 11.7501 12.81 11.6001 12.66C11.3101 12.37 11.3101 11.89 11.6001 11.6L15.4001 7.77998C15.6901 7.48998 16.1701 7.48998 16.4601 7.77998C16.7501 8.06998 16.7501 8.54998 16.4601 8.83998Z" fill="#171717"/>
</svg>
