<svg width="40" height="41" viewBox="0 0 40 41" fill="none" xmlns="http://www.w3.org/2000/svg">
<path opacity="0.4" d="M28.4996 3.62256H21.4996C15.7496 3.62256 13.4163 5.90589 13.3496 11.5392H18.4996C25.4996 11.5392 28.7496 14.7892 28.7496 21.7892V26.9392C34.3829 26.8726 36.6663 24.5392 36.6663 18.7892V11.7892C36.6663 5.95589 34.3329 3.62256 28.4996 3.62256Z" fill="#FDFFEF"/>
<path d="M18.4997 13.6226H11.4997C5.66634 13.6226 3.33301 15.9559 3.33301 21.7892V28.7892C3.33301 34.6226 5.66634 36.9559 11.4997 36.9559H18.4997C24.333 36.9559 26.6663 34.6226 26.6663 28.7892V21.7892C26.6663 15.9559 24.333 13.6226 18.4997 13.6226ZM20.483 23.0392L14.2997 29.2226C14.0663 29.4559 13.7663 29.5726 13.4497 29.5726C13.133 29.5726 12.833 29.4559 12.5997 29.2226L9.49967 26.1226C9.03301 25.6559 9.03301 24.9059 9.49967 24.4392C9.96634 23.9726 10.7163 23.9726 11.183 24.4392L13.433 26.6892L18.783 21.3392C19.2497 20.8726 19.9997 20.8726 20.4663 21.3392C20.933 21.8059 20.9497 22.5726 20.483 23.0392Z" fill="#FDFFEF"/>
</svg>
